<?xml version="1.0" standalone="no"?>
<!DOCTYPE svg PUBLIC "-//W3C//DTD SVG 20010904//EN"
 "http://www.w3.org/TR/2001/REC-SVG-20010904/DTD/svg10.dtd">
<svg version="1.0" xmlns="http://www.w3.org/2000/svg"
 width="1024.000000pt" height="1024.000000pt" viewBox="0 0 1024.000000 1024.000000"
 preserveAspectRatio="xMidYMid meet">

<g transform="translate(0.000000,1024.000000) scale(0.100000,-0.100000)"
fill="#000000" stroke="none">
<path d="M4845 7649 c-477 -62 -949 -317 -1268 -688 -49 -58 -116 -145 -149
-195 -74 -112 -169 -303 -207 -416 l-29 -85 -134 -6 c-605 -29 -1166 -445
-1379 -1023 -152 -410 -125 -915 68 -1301 221 -439 636 -760 1113 -862 80 -17
201 -18 2255 -18 2074 0 2174 1 2255 19 309 67 571 203 787 410 263 251 410
511 484 861 21 95 24 137 24 315 0 237 -14 329 -75 511 -178 534 -622 937
-1169 1060 -49 11 -147 22 -227 26 l-140 6 -29 86 c-44 131 -152 336 -246 467
-329 458 -810 749 -1370 829 -115 16 -448 18 -564 4z m590 -339 c153 -30 280
-72 420 -140 444 -215 754 -582 905 -1075 40 -130 83 -155 264 -155 345 0 620
-98 878 -313 207 -173 364 -445 419 -722 21 -107 18 -398 -5 -505 -74 -340
-262 -621 -541 -810 -125 -84 -232 -131 -409 -178 l-101 -27 -2100 -3 c-2329
-3 -2194 -7 -2401 63 -231 77 -414 205 -569 397 -245 303 -342 716 -261 1105
64 303 268 603 531 777 221 147 408 203 705 213 250 8 274 23 334 216 95 303
285 590 526 792 247 207 566 343 910 389 90 11 387 -3 495 -24z"/>
<path d="M6036 6465 c-215 -76 -237 -386 -34 -491 52 -27 175 -31 229 -7 105
47 161 131 161 243 1 113 -52 197 -157 246 -58 27 -138 31 -199 9z"/>
<path d="M4114 5766 c-91 -21 -170 -64 -238 -128 -33 -32 -62 -58 -63 -58 -2
0 -3 31 -3 69 0 46 -5 72 -14 80 -9 8 -75 11 -217 9 l-204 -3 0 -745 0 -745
215 0 215 0 5 485 c5 465 6 487 26 530 25 55 69 101 121 126 47 23 159 30 208
14 48 -16 101 -63 128 -114 22 -40 22 -48 25 -543 l3 -503 199 0 c109 0 205 3
214 6 14 5 16 57 16 478 0 530 1 544 67 611 52 54 104 75 189 75 118 0 201
-54 235 -155 11 -32 14 -138 15 -505 0 -256 1 -475 2 -487 l2 -23 205 0 205 0
6 24 c3 12 4 259 2 547 -4 497 -5 528 -25 600 -63 224 -216 347 -458 365 -175
14 -317 -38 -443 -162 -60 -59 -77 -72 -84 -60 -47 85 -157 173 -251 201 -73
23 -228 28 -303 11z"/>
<path d="M5915 5728 c-3 -7 -6 -375 -7 -818 -3 -761 -4 -807 -21 -839 -47 -86
-116 -120 -242 -121 -57 0 -95 -4 -103 -12 -8 -8 -12 -65 -12 -190 0 -209 -7
-198 122 -198 370 0 622 169 683 458 12 55 15 216 15 900 l0 832 -215 0 c-163
0 -217 -3 -220 -12z"/>
</g>
</svg>
